<?xml version="1.0" encoding="UTF-8"?>
<svg version="1.1" xmlns="http://www.w3.org/2000/svg" width="128" height="128">
<path d="M0 0 C0.72960937 0.05542969 1.45921875 0.11085937 2.2109375 0.16796875 C8.65199511 1.8876686 13.24480482 7.1622263 17.7734375 11.765625 C18.43082916 12.42584656 19.08822083 13.08606812 19.76553345 13.76629639 C21.84846262 15.86035262 23.92429958 17.96128065 26 20.0625 C27.41750476 21.49004421 28.83546886 22.91713247 30.25390625 24.34375 C33.71627494 27.82807984 37.17230344 31.31858668 40.625 34.8125 C45.24395465 30.96667395 49.57439748 26.96495069 53.75 22.64453125 C54.87976169 21.4924004 56.00998378 20.34072086 57.140625 19.18945312 C58.88956157 17.40338362 60.63518053 15.61447396 62.37304688 13.81762695 C64.07280751 12.06313556 65.78521746 10.32182731 67.5 8.58203125 C68.01062988 8.04761917 68.52125977 7.51320709 69.04736328 6.96260071 C73.13491382 2.84604372 77.30803891 0.12840106 83.25 -0.4375 C89.41330752 0.21126921 92.96965153 1.66316767 97.625 5.8125 C97.625 6.4725 97.625 7.1325 97.625 7.8125 C98.615 8.1425 99.605 8.4725 100.625 8.8125 C100.625 9.4725 100.625 10.1325 100.625 10.8125 C101.615 11.1425 102.605 11.4725 103.625 11.8125 C107.37726588 16.84480307 108.31657496 21.68712175 107.625 27.8125 C105.40498759 33.5474056 101.64306159 37.18492887 97.33203125 41.3984375 C96.62600266 42.10022125 95.91997406 42.802005 95.19255066 43.52505493 C92.9478417 45.7530435 90.69290179 47.97034167 88.4375 50.1875 C86.90881674 51.70112792 85.38081415 53.2154436 83.85351562 54.73046875 C80.1185229 58.43248032 76.37508666 62.12578254 72.625 65.8125 C76.47645345 70.43386867 80.48128237 74.7798931 84.79296875 78.97265625 C85.94494595 80.10713307 87.09663014 81.24190748 88.24804688 82.37695312 C90.03542706 84.13332548 91.82504538 85.8872234 93.61987305 87.63598633 C95.37192339 89.34555405 97.11425289 91.06456395 98.85546875 92.78515625 C99.38988083 93.30094742 99.92429291 93.81673859 100.47489929 94.34815979 C104.72093296 98.56491489 108.03341369 103.02832043 108.125 109.1875 C107.9154731 114.3645604 106.1279182 118.0283256 102.625 121.8125 C98.47307673 125.16349794 94.73106371 126.11235704 89.4375 125.75 C85.61570576 125.17290318 82.65604193 124.33836828 79.625 121.8125 C79.625 121.1525 79.625 120.4925 79.625 119.8125 C78.965 119.8125 78.305 119.8125 77.625 119.8125 C76 118.4375 76 118.4375 74.625 116.8125 C74.625 116.1525 74.625 115.4925 74.625 114.8125 C73.965 114.8125 73.305 114.8125 72.625 114.8125 C68.81235501 111.32665315 65.51332561 107.42134529 62.17578125 103.484375 C60.71149533 101.70923637 60.71149533 101.70923637 58.625 100.8125 C58.625 100.1525 58.625 99.4925 58.625 98.8125 C57.14 98.3175 57.14 98.3175 55.625 97.8125 C55.625 97.1525 55.625 96.4925 55.625 95.8125 C54.14 95.3175 54.14 95.3175 52.625 94.8125 C52.625 94.1525 52.625 93.4925 52.625 92.8125 C51.965 92.8125 51.305 92.8125 50.625 92.8125 C50.295 92.1525 49.965 91.4925 49.625 90.8125 C46.74613492 92.11399204 44.72211055 93.47981054 42.52807617 95.74584961 C41.66148628 96.63203224 41.66148628 96.63203224 40.77738953 97.53611755 C40.16378067 98.1725972 39.55017181 98.80907684 38.91796875 99.46484375 C37.59598498 100.81212558 36.27371018 102.15912189 34.95117188 103.50585938 C32.88032188 105.62626649 30.81278918 107.74970144 28.75073242 109.87866211 C26.75290477 111.93716754 24.74260151 113.98283231 22.73046875 116.02734375 C22.12293259 116.66179916 21.51539642 117.29625458 20.88945007 117.94993591 C16.48336989 122.4067228 12.4546236 125.21875991 6.10546875 126.203125 C-2.72164124 125.66176902 -7.36685543 120.18836425 -13.078125 113.953125 C-16.55674099 109.91473173 -17.5914799 107.47858718 -17.8125 102.1875 C-17.87308594 101.18460937 -17.93367188 100.18171875 -17.99609375 99.1484375 C-16.61892954 91.75159324 -9.92350945 86.07927344 -4.69921875 80.9765625 C-4.08859085 80.37113617 -3.47796295 79.76570984 -2.84883118 79.14193726 C-0.92483306 77.23554951 1.00580922 75.33608989 2.9375 73.4375 C4.88608748 71.51656059 6.83316311 69.59414619 8.77738953 67.66879272 C9.98102893 66.47738809 11.18733178 65.28866693 12.39656067 64.10293579 C15.38211663 61.24219093 15.38211663 61.24219093 17.625 57.8125 C16.965 57.8125 16.305 57.8125 15.625 57.8125 C15.625 57.1525 15.625 56.4925 15.625 55.8125 C14.635 55.4825 13.645 55.1525 12.625 54.8125 C12.625 54.1525 12.625 53.4925 12.625 52.8125 C11.14 52.3175 11.14 52.3175 9.625 51.8125 C9.625 51.1525 9.625 50.4925 9.625 49.8125 C8.965 49.8125 8.305 49.8125 7.625 49.8125 C6 48.4375 6 48.4375 4.625 46.8125 C4.625 46.1525 4.625 45.4925 4.625 44.8125 C3.965 44.8125 3.305 44.8125 2.625 44.8125 C-1.64964437 40.92645966 -5.37820376 36.49140645 -9.21875 32.18359375 C-10.89105374 30.34466554 -12.58056196 28.5911922 -14.375 26.875 C-18.09872106 23.03491266 -17.70992861 18.68200363 -17.65625 13.609375 C-17.22616909 9.33245933 -16.00103121 7.21924319 -13.375 3.8125 C-9.11866547 0.6202491 -5.26736071 -0.48977214 0 0 Z " fill="#FBADDD" transform="translate(18.375,1.1875)"/>
<path d="M0 0 C0.72960937 0.05542969 1.45921875 0.11085937 2.2109375 0.16796875 C8.65199511 1.8876686 13.24480482 7.1622263 17.7734375 11.765625 C18.43082916 12.42584656 19.08822083 13.08606812 19.76553345 13.76629639 C21.84846262 15.86035262 23.92429958 17.96128065 26 20.0625 C27.41750476 21.49004421 28.83546886 22.91713247 30.25390625 24.34375 C33.71627494 27.82807984 37.17230344 31.31858668 40.625 34.8125 C45.24395465 30.96667395 49.57439748 26.96495069 53.75 22.64453125 C54.87976169 21.4924004 56.00998378 20.34072086 57.140625 19.18945312 C58.88956157 17.40338362 60.63518053 15.61447396 62.37304688 13.81762695 C64.07280751 12.06313556 65.78521746 10.32182731 67.5 8.58203125 C68.01062988 8.04761917 68.52125977 7.51320709 69.04736328 6.96260071 C73.13491382 2.84604372 77.30803891 0.12840106 83.25 -0.4375 C89.41330752 0.21126921 92.96965153 1.66316767 97.625 5.8125 C97.625 6.4725 97.625 7.1325 97.625 7.8125 C98.615 8.1425 99.605 8.4725 100.625 8.8125 C100.625 9.4725 100.625 10.1325 100.625 10.8125 C101.615 11.1425 102.605 11.4725 103.625 11.8125 C107.37726588 16.84480307 108.31657496 21.68712175 107.625 27.8125 C105.40498759 33.5474056 101.64306159 37.18492887 97.33203125 41.3984375 C96.62600266 42.10022125 95.91997406 42.802005 95.19255066 43.52505493 C92.9478417 45.7530435 90.69290179 47.97034167 88.4375 50.1875 C86.90881674 51.70112792 85.38081415 53.2154436 83.85351562 54.73046875 C80.1185229 58.43248032 76.37508666 62.12578254 72.625 65.8125 C76.47645345 70.43386867 80.48128237 74.7798931 84.79296875 78.97265625 C85.94494595 80.10713307 87.09663014 81.24190748 88.24804688 82.37695312 C90.03542706 84.13332548 91.82504538 85.8872234 93.61987305 87.63598633 C95.37192339 89.34555405 97.11425289 91.06456395 98.85546875 92.78515625 C99.38988083 93.30094742 99.92429291 93.81673859 100.47489929 94.34815979 C104.72093296 98.56491489 108.03341369 103.02832043 108.125 109.1875 C107.9154731 114.3645604 106.1279182 118.0283256 102.625 121.8125 C98.47307673 125.16349794 94.73106371 126.11235704 89.4375 125.75 C85.61570576 125.17290318 82.65604193 124.33836828 79.625 121.8125 C79.625 121.1525 79.625 120.4925 79.625 119.8125 C78.965 119.8125 78.305 119.8125 77.625 119.8125 C76 118.4375 76 118.4375 74.625 116.8125 C74.625 116.1525 74.625 115.4925 74.625 114.8125 C73.965 114.8125 73.305 114.8125 72.625 114.8125 C68.81235501 111.32665315 65.51332561 107.42134529 62.17578125 103.484375 C60.71149533 101.70923637 60.71149533 101.70923637 58.625 100.8125 C58.625 100.1525 58.625 99.4925 58.625 98.8125 C57.14 98.3175 57.14 98.3175 55.625 97.8125 C55.625 97.1525 55.625 96.4925 55.625 95.8125 C54.14 95.3175 54.14 95.3175 52.625 94.8125 C52.625 94.1525 52.625 93.4925 52.625 92.8125 C51.965 92.8125 51.305 92.8125 50.625 92.8125 C50.295 92.1525 49.965 91.4925 49.625 90.8125 C46.74613492 92.11399204 44.72211055 93.47981054 42.52807617 95.74584961 C41.66148628 96.63203224 41.66148628 96.63203224 40.77738953 97.53611755 C40.16378067 98.1725972 39.55017181 98.80907684 38.91796875 99.46484375 C37.59598498 100.81212558 36.27371018 102.15912189 34.95117188 103.50585938 C32.88032188 105.62626649 30.81278918 107.74970144 28.75073242 109.87866211 C26.75290477 111.93716754 24.74260151 113.98283231 22.73046875 116.02734375 C22.12293259 116.66179916 21.51539642 117.29625458 20.88945007 117.94993591 C16.48336989 122.4067228 12.4546236 125.21875991 6.10546875 126.203125 C-2.72164124 125.66176902 -7.36685543 120.18836425 -13.078125 113.953125 C-16.55674099 109.91473173 -17.5914799 107.47858718 -17.8125 102.1875 C-17.87308594 101.18460937 -17.93367188 100.18171875 -17.99609375 99.1484375 C-16.61892954 91.75159324 -9.92350945 86.07927344 -4.69921875 80.9765625 C-4.08859085 80.37113617 -3.47796295 79.76570984 -2.84883118 79.14193726 C-0.92483306 77.23554951 1.00580922 75.33608989 2.9375 73.4375 C4.88608748 71.51656059 6.83316311 69.59414619 8.77738953 67.66879272 C9.98102893 66.47738809 11.18733178 65.28866693 12.39656067 64.10293579 C15.38211663 61.24219093 15.38211663 61.24219093 17.625 57.8125 C16.965 57.8125 16.305 57.8125 15.625 57.8125 C15.625 57.1525 15.625 56.4925 15.625 55.8125 C14.635 55.4825 13.645 55.1525 12.625 54.8125 C12.625 54.1525 12.625 53.4925 12.625 52.8125 C11.14 52.3175 11.14 52.3175 9.625 51.8125 C9.625 51.1525 9.625 50.4925 9.625 49.8125 C8.965 49.8125 8.305 49.8125 7.625 49.8125 C6 48.4375 6 48.4375 4.625 46.8125 C4.625 46.1525 4.625 45.4925 4.625 44.8125 C3.965 44.8125 3.305 44.8125 2.625 44.8125 C-1.64964437 40.92645966 -5.37820376 36.49140645 -9.21875 32.18359375 C-10.89105374 30.34466554 -12.58056196 28.5911922 -14.375 26.875 C-18.09872106 23.03491266 -17.70992861 18.68200363 -17.65625 13.609375 C-17.22616909 9.33245933 -16.00103121 7.21924319 -13.375 3.8125 C-9.11866547 0.6202491 -5.26736071 -0.48977214 0 0 Z M-12.375 9.8125 C-13.94712151 12.95674302 -13.8929375 16.39041292 -13.375 19.8125 C-10.87452308 24.93658998 -6.87165657 28.5697341 -2.86328125 32.51953125 C-2.13505661 33.24492599 -1.40683197 33.97032074 -0.65653992 34.71769714 C1.66180702 37.02488286 3.98702408 39.32500216 6.3125 41.625 C7.88913069 43.19159567 9.46530786 44.75864791 11.04101562 46.32617188 C14.89710425 50.16025396 18.75885144 53.98856363 22.625 57.8125 C21.15081999 63.34651967 17.21661896 66.58306593 13.24609375 70.44921875 C12.51882584 71.16987015 11.79155792 71.89052155 11.04225159 72.63301086 C8.72266692 74.92922433 6.3931464 77.21501956 4.0625 79.5 C1.73005567 81.79740607 -0.60024418 84.09693066 -2.92796326 86.39912415 C-4.37604357 87.83019787 -5.82718911 89.25817771 -7.28163147 90.68278503 C-8.26286232 91.64937798 -8.26286232 91.64937798 -9.26391602 92.63549805 C-10.13089867 93.48557686 -10.13089867 93.48557686 -11.01539612 94.35282898 C-13.67599405 97.2092475 -13.70890813 99.88043292 -13.66015625 103.7109375 C-13.19349096 107.15019673 -11.59374413 109.22396518 -9.375 111.8125 C-5.9655957 114.39894464 -2.5363551 114.17753115 1.625 113.8125 C6.84588951 111.38318114 10.56546779 107.12464873 14.55078125 103.08203125 C15.29837204 102.33161057 16.04596283 101.58118988 16.81620789 100.80802917 C19.19472071 98.41835247 21.56617123 96.02180367 23.9375 93.625 C25.55227297 92.00019236 27.16750226 90.37583807 28.78320312 88.75195312 C32.73577201 84.77737416 36.68257065 80.79713532 40.625 76.8125 C45.59248134 80.96940975 50.22996621 85.30518825 54.765625 89.92578125 C56.09622415 91.26900901 57.42695714 92.61210421 58.7578125 93.95507812 C60.82906273 96.0512683 62.89866261 98.14904115 64.96582031 100.24926758 C66.97807872 102.29161981 68.99642333 104.32779672 71.015625 106.36328125 C71.63439514 106.99551102 72.25316528 107.62774078 72.89068604 108.27912903 C73.46848816 108.86030991 74.04629028 109.44149078 74.64160156 110.0402832 C75.14677307 110.55291214 75.65194458 111.06554108 76.17242432 111.59370422 C79.56420768 114.43960843 83.4304984 114.16796624 87.625 113.8125 C90.67857079 112.19929279 92.86333566 110.78189098 95 108.0625 C96.24744858 103.5716851 96.7315019 99.82196665 94.45703125 95.69140625 C92.93828266 93.62606433 91.34612942 91.71181693 89.625 89.8125 C88.91150391 89.01392578 88.91150391 89.01392578 88.18359375 88.19921875 C86.7681602 86.65871183 86.7681602 86.65871183 84.625 84.8125 C83.965 84.8125 83.305 84.8125 82.625 84.8125 C82.39377441 84.25530273 82.16254883 83.69810547 81.92431641 83.12402344 C80.27865415 80.1963402 78.22524749 78.18864812 75.8359375 75.828125 C75.37265045 75.36766785 74.9093634 74.90721069 74.43203735 74.43280029 C72.95934102 72.97124922 71.47982597 71.51682832 70 70.0625 C68.99693678 69.06947389 67.99432743 68.07598911 66.9921875 67.08203125 C64.54169165 64.65352059 62.0850333 62.23135325 59.625 59.8125 C60.98254589 56.77510698 62.50272991 54.69314527 64.86547852 52.36083984 C65.52278458 51.70691254 66.18009064 51.05298523 66.85731506 50.37924194 C67.56569016 49.68432648 68.27406525 48.98941101 69.00390625 48.2734375 C69.73117416 47.55137115 70.45844208 46.82930481 71.20774841 46.08535767 C73.52963582 43.78127306 75.85810139 41.48398868 78.1875 39.1875 C80.51958572 36.88300867 82.85020945 34.57708608 85.17796326 32.26821899 C86.62645538 30.83200844 88.07761176 29.39847914 89.53163147 27.96786499 C90.18578537 27.320242 90.83993927 26.67261902 91.51391602 26.00537109 C92.38089867 25.15076797 92.38089867 25.15076797 93.26539612 24.27890015 C96.12750016 21.19197914 96.01042224 18.17794793 95.984375 14.140625 C95.37955722 10.22245764 93.45623243 8.50891184 90.625 5.8125 C87.16571386 4.08285693 83.4140784 4.46863948 79.625 4.8125 C75.0241468 6.56520598 72.41665772 10.21510804 69.3203125 13.89453125 C67.30152059 16.17846404 65.01357237 17.92678497 62.625 19.8125 C61.72916881 20.83630707 60.85479125 21.87918702 60 22.9375 C57.625 25.8125 57.625 25.8125 54.625 27.8125 C54.625 28.4725 54.625 29.1325 54.625 29.8125 C53.965 29.8125 53.305 29.8125 52.625 29.8125 C50.92015534 31.49772729 50.92015534 31.49772729 49.1875 33.625 C47.08036324 36.12352718 44.97258602 38.5367056 42.625 40.8125 C39.64256973 39.47406331 37.58188572 38.00840796 35.296875 35.6796875 C34.66942383 35.04562988 34.04197266 34.41157227 33.39550781 33.75830078 C32.72874023 33.07493652 32.06197266 32.39157227 31.375 31.6875 C30.67987305 30.9847998 29.98474609 30.28209961 29.26855469 29.55810547 C26.29776286 26.55463093 23.33893242 23.53946945 20.37890625 20.52539062 C18.21501067 18.32536674 16.04517924 16.13132282 13.875 13.9375 C13.20823242 13.25413574 12.54146484 12.57077148 11.85449219 11.86669922 C11.22704102 11.2326416 10.59958984 10.59858398 9.953125 9.9453125 C9.4055957 9.38730957 8.85806641 8.82930664 8.29394531 8.25439453 C4.41255608 4.90104684 0.87859207 4.32728628 -4.1171875 4.41796875 C-7.96575968 5.09047012 -9.71477988 7.01926888 -12.375 9.8125 Z " fill="#192945" transform="translate(18.375,1.1875)"/>
</svg>
